<svg width="139" height="26" viewBox="0 0 139 26" fill="none" xmlns="http://www.w3.org/2000/svg">
<path d="M23.8333 11L16.5 18.3333" stroke="#F34822" stroke-width="2" stroke-linecap="round" stroke-linejoin="round"/>
<path d="M23.8333 11L19.1667 24.3333L16.5 18.3333L10.5 15.6667L23.8333 11Z" stroke="#F34822" stroke-width="2" stroke-linecap="round" stroke-linejoin="round"/>
<path d="M2 9.5V5C2 3.34315 3.34315 2 5 2H9.5" stroke="#F34822" stroke-width="3" stroke-linecap="round"/>
<path d="M17 2H21.5C23.1569 2 24.5 3.34315 24.5 5V6" stroke="#F34822" stroke-width="3" stroke-linecap="round"/>
<path d="M9.5 24H5C3.34315 24 2 22.6569 2 21L2 16.5" stroke="#F34822" stroke-width="3" stroke-linecap="round"/>
<path d="M15 2H21" stroke="#F34822" stroke-width="3" stroke-linecap="round"/>
<path d="M139 15.3538V16.2742L138.77 16.5043H131.637L131.407 16.7344C131.407 17.1025 131.591 17.5013 131.959 17.9308C132.328 18.3603 132.91 18.575 133.708 18.575C134.552 18.575 135.089 18.345 135.319 17.8848L135.549 17.6547H138.31L138.54 17.8848C138.478 18.2683 138.348 18.6441 138.149 19.0122C137.965 19.3803 137.696 19.7485 137.343 20.1166C136.991 20.4847 136.5 20.7839 135.871 21.0139C135.242 21.2287 134.521 21.3361 133.708 21.3361C131.852 21.3361 130.425 20.7685 129.428 19.6334C128.447 18.4983 127.956 17.0718 127.956 15.3538C127.956 13.6512 128.431 12.2323 129.382 11.0973C130.349 9.94683 131.714 9.37161 133.478 9.37161C135.242 9.37161 136.599 9.94683 137.55 11.0973C138.517 12.2323 139 13.6512 139 15.3538ZM135.319 14.2034L135.549 13.9733C135.549 13.8813 135.526 13.7509 135.48 13.5822C135.434 13.4134 135.342 13.214 135.204 12.984C135.081 12.7385 134.866 12.5391 134.559 12.3857C134.268 12.217 133.907 12.1326 133.478 12.1326C133.048 12.1326 132.68 12.217 132.374 12.3857C132.082 12.5391 131.867 12.7385 131.729 12.984C131.607 13.214 131.522 13.4134 131.476 13.5822C131.43 13.7509 131.407 13.8813 131.407 13.9733L131.637 14.2034H135.319Z" fill="white"/>
<path d="M126.575 17.6547C126.575 18.6824 126.161 19.5567 125.333 20.2777C124.505 20.9833 123.231 21.3361 121.513 21.3361C119.934 21.3361 118.691 20.9756 117.786 20.2547C116.896 19.5337 116.452 18.5904 116.452 17.4246L116.682 17.1945H119.443L119.673 17.4246C119.673 17.8541 119.826 18.1532 120.133 18.3219C120.44 18.4907 120.9 18.575 121.513 18.575C122.741 18.575 123.354 18.2683 123.354 17.6547C123.354 17.532 123.339 17.4246 123.308 17.3326C123.277 17.2252 123.216 17.1408 123.124 17.0795C123.032 17.0028 122.955 16.9414 122.894 16.8954C122.833 16.8494 122.71 16.811 122.526 16.7804C122.357 16.7344 122.219 16.7037 122.112 16.6883C122.02 16.6577 121.851 16.627 121.606 16.5963C121.36 16.5503 121.176 16.5196 121.053 16.5043C118.139 16.0134 116.682 14.7863 116.682 12.8229C116.682 11.8259 117.08 11.0052 117.878 10.361C118.676 9.7014 119.888 9.37161 121.513 9.37161C122.955 9.37161 124.121 9.67072 125.011 10.2689C125.9 10.8672 126.345 11.7185 126.345 12.8229L126.115 13.053H123.354L123.124 12.8229C123.124 12.3627 122.587 12.1326 121.513 12.1326C120.931 12.1326 120.516 12.2017 120.271 12.3397C120.026 12.4778 119.903 12.7155 119.903 13.053C119.903 13.2371 119.941 13.3904 120.018 13.5132C120.11 13.6205 120.271 13.7126 120.501 13.7893C120.731 13.866 120.923 13.9273 121.076 13.9733C121.23 14.004 121.49 14.0424 121.859 14.0884C122.242 14.1344 122.511 14.1727 122.664 14.2034C123.047 14.2648 123.362 14.3261 123.607 14.3875C123.868 14.4488 124.205 14.5639 124.62 14.7326C125.034 14.9013 125.364 15.1007 125.609 15.3308C125.87 15.5456 126.092 15.86 126.276 16.2742C126.476 16.673 126.575 17.1332 126.575 17.6547Z" fill="white"/>
<path d="M114.622 20.8759L114.392 21.106H111.861L111.631 20.8759L111.401 20.4157H111.17C111.109 20.4771 111.009 20.5614 110.871 20.6688C110.733 20.7762 110.442 20.9142 109.997 21.083C109.568 21.2517 109.115 21.3361 108.64 21.3361C107.366 21.3361 106.354 21.0139 105.602 20.3697C104.866 19.7101 104.498 18.8051 104.498 17.6547C104.498 16.9951 104.613 16.4199 104.843 15.9291C105.089 15.4382 105.388 15.0624 105.74 14.8016C106.093 14.5255 106.507 14.3031 106.983 14.1344C107.474 13.9657 107.919 13.8583 108.317 13.8123C108.716 13.7662 109.13 13.7432 109.56 13.7432C109.836 13.7432 110.104 13.7662 110.365 13.8123C110.641 13.8429 110.848 13.8813 110.986 13.9273L111.17 13.9733L111.401 13.7432V13.5132C111.401 12.9303 111.301 12.5545 111.101 12.3857C110.917 12.217 110.48 12.1326 109.79 12.1326C109.483 12.1326 109.245 12.1403 109.077 12.1556C108.923 12.171 108.755 12.2323 108.571 12.3397C108.386 12.4471 108.256 12.6081 108.179 12.8229L107.949 13.053H105.188L104.958 12.8229C104.958 11.9639 105.349 11.174 106.132 10.453C106.914 9.73208 108.133 9.37161 109.79 9.37161C111.569 9.37161 112.819 9.80111 113.54 10.6601C114.261 11.5191 114.622 12.8536 114.622 14.6636V20.8759ZM111.401 16.5043L111.17 16.2742C110.864 16.1208 110.404 16.0441 109.79 16.0441C108.409 16.0441 107.719 16.5043 107.719 17.4246C107.719 18.1916 108.256 18.575 109.33 18.575C109.913 18.575 110.404 18.4216 110.802 18.1149C111.201 17.8081 111.401 17.4246 111.401 16.9644V16.5043Z" fill="white"/>
<path d="M101.648 11.0282C102.63 12.1173 103.121 13.5592 103.121 15.3539C103.121 17.1485 102.63 18.5981 101.648 19.7025C100.682 20.7915 99.4856 21.3361 98.0591 21.3361C97.4455 21.3361 96.8857 21.244 96.3795 21.06C95.8886 20.8606 95.5435 20.6612 95.3441 20.4618L95.068 20.1857H94.8379L94.6078 20.8759L94.3777 21.106H91.8468L91.6167 20.8759V5.23009L91.8468 5H94.6078L94.8379 5.23009V10.5221H95.068C95.1293 10.43 95.229 10.3226 95.3671 10.1999C95.5205 10.0772 95.8503 9.90849 96.3565 9.69375C96.878 9.479 97.4455 9.37163 98.0591 9.37163C99.4856 9.37163 100.682 9.92383 101.648 11.0282ZM97.3688 18.575C99.0561 18.575 99.8998 17.5013 99.8998 15.3539C99.8998 13.2064 99.0561 12.1327 97.3688 12.1327C95.6815 12.1327 94.8379 13.2064 94.8379 15.3539C94.8379 17.5013 95.6815 18.575 97.3688 18.575Z" fill="white"/>
<path d="M89.5451 20.8759L89.315 21.106H87.9345L87.4743 20.8759L84.2531 17.4246H84.023L82.6425 18.8051L82.4124 19.2653V20.8759L82.1823 21.106H79.4213L79.1912 20.8759V5.23009L79.4213 5H82.1823L82.4124 5.23009V14.4335H82.6425L87.2442 9.8318L87.7044 9.60171H89.0849L89.315 9.8318V12.1327L86.554 14.8937V15.1238L89.5451 18.575V20.8759Z" fill="white"/>
<path d="M76.6711 20.8759L76.441 21.106H73.91L73.68 20.8759L73.4499 20.4157H73.2198C73.1584 20.4771 73.0587 20.5614 72.9207 20.6688C72.7826 20.7762 72.4912 20.9142 72.0463 21.083C71.6169 21.2517 71.1644 21.3361 70.6888 21.3361C69.4157 21.3361 68.4033 21.0139 67.6517 20.3697C66.9154 19.7101 66.5473 18.8051 66.5473 17.6547C66.5473 16.9951 66.6623 16.4199 66.8924 15.9291C67.1379 15.4382 67.437 15.0624 67.7898 14.8016C68.1426 14.5255 68.5567 14.3031 69.0322 14.1344C69.5231 13.9657 69.9679 13.8583 70.3667 13.8123C70.7655 13.7662 71.1797 13.7432 71.6092 13.7432C71.8853 13.7432 72.1537 13.7662 72.4145 13.8123C72.6906 13.8429 72.8977 13.8813 73.0357 13.9273L73.2198 13.9733L73.4499 13.7432V13.5132C73.4499 12.9303 73.3502 12.5545 73.1508 12.3857C72.9667 12.217 72.5295 12.1326 71.8393 12.1326C71.5325 12.1326 71.2947 12.1403 71.126 12.1556C70.9726 12.171 70.8039 12.2323 70.6198 12.3397C70.4357 12.4471 70.3054 12.6081 70.2287 12.8229L69.9986 13.053H67.2376L67.0075 12.8229C67.0075 11.9639 67.3986 11.174 68.1809 10.453C68.9632 9.73208 70.1827 9.37161 71.8393 9.37161C73.6186 9.37161 74.8687 9.80111 75.5897 10.6601C76.3106 11.5191 76.6711 12.8536 76.6711 14.6636V20.8759ZM73.4499 16.5043L73.2198 16.2742C72.913 16.1208 72.4528 16.0441 71.8393 16.0441C70.4588 16.0441 69.7685 16.5043 69.7685 17.4246C69.7685 18.1916 70.3054 18.575 71.3791 18.575C71.962 18.575 72.4528 18.4216 72.8516 18.1149C73.2505 17.8081 73.4499 17.4246 73.4499 16.9644V16.5043Z" fill="white"/>
<path d="M65.1659 15.3538V16.2742L64.9358 16.5043H57.8032L57.5731 16.7344C57.5731 17.1025 57.7572 17.5013 58.1253 17.9308C58.4935 18.3603 59.0763 18.575 59.874 18.575C60.7176 18.575 61.2545 18.345 61.4846 17.8848L61.7147 17.6547H64.4757L64.7058 17.8848C64.6444 18.2683 64.514 18.6441 64.3146 19.0122C64.1306 19.3803 63.8621 19.7485 63.5093 20.1166C63.1565 20.4847 62.6657 20.7839 62.0368 21.0139C61.4079 21.2287 60.6869 21.3361 59.874 21.3361C58.0179 21.3361 56.5914 20.7685 55.5944 19.6334C54.6127 18.4983 54.1218 17.0718 54.1218 15.3538C54.1218 13.6512 54.5973 12.2323 55.5484 11.0973C56.5147 9.94683 57.8799 9.37161 59.6439 9.37161C61.4079 9.37161 62.7654 9.94683 63.7164 11.0973C64.6828 12.2323 65.1659 13.6512 65.1659 15.3538ZM61.4846 14.2034L61.7147 13.9733C61.7147 13.8813 61.6916 13.7509 61.6456 13.5822C61.5996 13.4134 61.5076 13.214 61.3695 12.984C61.2468 12.7385 61.0321 12.5391 60.7253 12.3857C60.4338 12.217 60.0734 12.1326 59.6439 12.1326C59.2144 12.1326 58.8463 12.217 58.5395 12.3857C58.248 12.5391 58.0333 12.7385 57.8952 12.984C57.7725 13.214 57.6882 13.4134 57.6421 13.5822C57.5961 13.7509 57.5731 13.8813 57.5731 13.9733L57.8032 14.2034H61.4846Z" fill="white"/>
<path d="M53.6643 12.1327L53.4342 12.3627H51.8236C50.9186 12.3627 50.2667 12.6005 49.8679 13.076C49.4844 13.5515 49.2927 14.3108 49.2927 15.3539V20.8759L49.0626 21.106H46.3016L46.0715 20.8759V9.8318L46.3016 9.60172H48.8325L49.0626 9.8318L49.2927 10.5221H49.5228C49.5534 10.4607 49.6148 10.3763 49.7068 10.269C49.7989 10.1616 50.0596 10.0235 50.4891 9.85481C50.9186 9.68608 51.4401 9.60172 52.0537 9.60172H53.4342L53.6643 9.8318V12.1327Z" fill="white"/>
<path d="M42.5317 11.0282C43.5134 12.1173 44.0043 13.5592 44.0043 15.3539C44.0043 17.1485 43.5134 18.5981 42.5317 19.7025C41.5654 20.7915 40.3689 21.3361 38.9424 21.3361C38.3288 21.3361 37.769 21.244 37.2628 21.06C36.7719 20.8606 36.4268 20.6612 36.2274 20.4618L35.9513 20.1857H35.7212L35.4911 20.8759L35.261 21.106H32.7301L32.5 20.8759V5.23009L32.7301 5H35.4911L35.7212 5.23009V10.5221H35.9513C36.0126 10.43 36.1123 10.3226 36.2504 10.1999C36.4038 10.0772 36.7336 9.90849 37.2398 9.69375C37.7613 9.479 38.3288 9.37163 38.9424 9.37163C40.3689 9.37163 41.5654 9.92383 42.5317 11.0282ZM38.2521 18.575C39.9394 18.575 40.7831 17.5013 40.7831 15.3539C40.7831 13.2064 39.9394 12.1327 38.2521 12.1327C36.5648 12.1327 35.7212 13.2064 35.7212 15.3539C35.7212 17.5013 36.5648 18.575 38.2521 18.575Z" fill="white"/>
</svg>
